<svg xmlns="http://www.w3.org/2000/svg" height="800" width="1200" viewBox="-23.3859 -6.00625 202.6778 36.0375"><path d="M147.404 11.007c.9-.96 2.234-1.469 3.54-1.469 3.977 0 4.962 2.699 4.962 6.148v7.977c0 .211-.145.359-.348.359h-2.495c-.203 0-.378-.148-.378-.359v-7.646c0-2.07-.261-3.479-2.495-3.479-2.814 0-2.814 2.697-2.814 5.008v6.117c0 .211-.175.359-.377.359h-2.496c-.204 0-.377-.148-.377-.359V10.287c0-.15.173-.33.377-.33h2.496c.202 0 .377.18.377.33zm-5.049 5.548c0 4.229-3.192 7.467-7.284 7.467-4.062 0-7.284-3.238-7.284-7.467 0-4.199 3.223-7.468 7.284-7.468 4.091 0 7.284 3.269 7.284 7.468m-11.318 0c0 2.338 1.799 4.318 4.033 4.318 2.293 0 4.092-1.98 4.092-4.318 0-2.34-1.799-4.289-4.092-4.289-2.234 0-4.033 1.95-4.033 4.289m-11.204-3.539h-2.321c-.203 0-.377-.09-.377-.301v-2.428c0-.15.174-.33.377-.33h.521c1.8 0 1.8-1.351 1.8-2.07V6.358c0-.21.175-.33.379-.33h2.493c.204 0 .35.12.35.33v3.6h3.047c.202 0 .377.18.377.33v2.428c0 .211-.175.301-.377.301h-3.047v4.498c0 1.139-.087 3.029 1.219 3.33.725.09 1.161-.09 1.596-.271 0 0 .146-.059.232-.059.202 0 .377.15.377.33v2.549c0 .09-.116.27-.261.299h.029c-.609.271-1.423.33-2.061.33-3.483 0-4.354-2.518-4.354-5.607v-5.4zM106.4 17.694c.146 1.98 1.509 3.359 3.512 3.359 1.742 0 2.524-.959 3.425-2.459.116-.15.261-.209.464-.09l2.118 1.229c.145.121.262.271.174.451v-.031c-1.276 2.461-3.54 3.869-6.21 3.869-4.149 0-6.704-3.238-6.704-7.377 0-4.289 2.264-7.557 6.646-7.557s6.471 3.688 6.471 7.856v.422c0 .209-.174.328-.377.328zm6.589-2.818c-.407-1.529-1.511-2.849-3.164-2.849-1.538 0-2.785 1.38-3.192 2.849zm-11.892 8.787c0 .211-.174.359-.348.359h-2.496c-.203 0-.378-.148-.378-.359V.78c0-.15.175-.33.378-.33h2.496c.174 0 .348.18.348.33zM82.074.329c0-.149.174-.329.377-.329h2.525c.203 0 .376.18.376.329v10.678c1.075-1.2 2.467-1.92 4.15-1.92 3.976 0 6.442 3.48 6.442 7.378 0 4.02-2.322 7.559-6.559 7.559-1.538 0-3.019-.781-4.063-1.891v1.08c0 .209-.173.359-.376.359H82.45c-.203 0-.377-.15-.377-.359V.329zm10.679 16.197c0-2.4-1.394-4.439-3.86-4.439-2.321 0-3.714 2.16-3.714 4.439 0 2.34 1.334 4.527 3.714 4.527 2.495.001 3.86-2.068 3.86-4.527m-27.481 1.979l-2.322 5.279c-.058.09-.261.24-.348.24h-2.845c-.289 0-.434-.24-.348-.51L69.537.69c.174-.271.551-.271.696 0 3.28 7.408 6.849 15.417 10.128 22.825.087.27-.059.51-.348.51h-2.846c-.116 0-.29-.15-.348-.24-.726-1.711-1.567-3.539-2.321-5.279h-9.226zm4.613-10.767l-3.278 7.587h6.558zM3.248 23.663c0 .209-.176.359-.352.359H.381c-.205 0-.381-.15-.381-.359V.707c0-.15.176-.33.381-.33h2.516c.176 0 .352.18.352.33v22.956zm6.583 0c0 .209-.176.359-.352.359H6.964c-.205 0-.38-.15-.38-.359V.707c0-.15.175-.33.38-.33H9.48c.176 0 .352.18.352.33v22.956zm6.583 0c0 .209-.175.359-.352.359h-2.516c-.205 0-.38-.15-.38-.359V.707c0-.15.175-.33.38-.33h2.516c.177 0 .352.18.352.33zm6.612 0c0 .209-.176.359-.351.359h-2.516c-.205 0-.381-.15-.381-.359V.707c0-.15.176-.33.381-.33h2.516c.175 0 .351.18.351.33zM48.919.346c.204 0 .351.182.351.361v2.588c0 .211-.146.391-.351.391H26.595c-.146 0-.321-.18-.321-.391V.707c0-.18.176-.361.321-.361zm0 6.8c.204 0 .351.181.351.361v2.587c0 .21-.146.391-.351.391H26.595c-.146 0-.321-.181-.321-.391V7.507c0-.181.176-.361.321-.361zm0 6.769c.204 0 .351.18.351.361v2.586c0 .213-.146.393-.351.393H26.595c-.146 0-.321-.18-.321-.393v-2.586c0-.182.176-.361.321-.361zm0 6.767c.204 0 .351.182.351.361v2.588c0 .211-.146.391-.351.391H26.595c-.146 0-.321-.18-.321-.391v-2.588c0-.18.176-.361.321-.361z"/></svg>